# xmcd
#
# Track frame offsets:
#	150
#	3027
#	10852
#	25055
#	36375
#	49907
#	57780
#	65485
#	73765
#	82490
#	90415
#	98267
#	110660
#	121040
#	130762
#	140265
#	148317
#	157227
#	168025
#	176692
#	184250
#	192457
#	205810
#
# Disc length: 3152 seconds
#
# Revision: 1
# Processed by: cddbd v1.5.1PL0 Copyright (c) Steve Scherf et al.
# Submitted via: CDex 1.50Beta5
#
DISCID=400c4e17
DTITLE=寺嶋民哉 - オリジナルサウンドトラック ザ・シェフ
DYEAR=1900
DGENRE=Soundtrack
TTITLE0=アペリティフ・プレリュード
TTITLE1=プロバンス風アニマート
TTITLE2=黒キャビアのアフェッチュオーソ
TTITLE3=アレグロ・ミルフィーユ
TTITLE4=魚のポンポーソスープ
TTITLE5=パエリア・ミステリオーソ
TTITLE6=ほうれんそうのコモド
TTITLE7=ラプソディー北欧風味
TTITLE8=子羊ロース肉のフーガ
TTITLE9=シャンピニオンのペザンテ
TTITLE10=ムール貝のクラスター
TTITLE11=ピアニストのためのグリーンカネロニ
TTITLE12=ドイツ風マエストーソ
TTITLE13=バラードのエスニック風味(Chase the Chance!)
TTITLE14=青いパパイヤのラルゴ
TTITLE15=スパイシーノクターン
TTITLE16=ニース風スケルツファンド
TTITLE17=ホルンと弦のためのパピヨット
TTITLE18=センティメントのハーブ風味
TTITLE19=パーカッションの包み焼き赤ワインソース
TTITLE20=チェリー・テンベストーソ
TTITLE21=アプリコット・カンタービレ
TTITLE22=シェフ特製エネルジャーコのデザート
EXTD=
EXTT0=
EXTT1=
EXTT2=
EXTT3=
EXTT4=
EXTT5=
EXTT6=
EXTT7=
EXTT8=
EXTT9=
EXTT10=
EXTT11=
EXTT12=
EXTT13=
EXTT14=
EXTT15=
EXTT16=
EXTT17=
EXTT18=
EXTT19=
EXTT20=
EXTT21=
EXTT22=
PLAYORDER=
